<mxfile host="app.diagrams.net" modified="2023-04-07T09:56:46.435Z" agent="5.0 (Windows NT 10.0; Win64; x64) AppleWebKit/537.36 (KHTML, like Gecko) Chrome/111.0.0.0 Safari/537.36 Edg/111.0.1661.62" etag="Mf7oiYCKyg6MOBOEcB-j" version="20.5.3" type="github">
  <diagram id="C5RBs43oDa-KdzZeNtuy" name="Page-1">
    <mxGraphModel dx="981" dy="526" grid="1" gridSize="10" guides="1" tooltips="1" connect="1" arrows="1" fold="1" page="1" pageScale="1" pageWidth="827" pageHeight="1169" math="0" shadow="0">
      <root>
        <mxCell id="WIyWlLk6GJQsqaUBKTNV-0" />
        <mxCell id="WIyWlLk6GJQsqaUBKTNV-1" parent="WIyWlLk6GJQsqaUBKTNV-0" />
        <mxCell id="ee8PxK10upsGAS38Y1EE-46" value="" style="rounded=0;whiteSpace=wrap;html=1;fillColor=#f5f5f5;fontColor=#333333;strokeColor=#666666;" vertex="1" parent="WIyWlLk6GJQsqaUBKTNV-1">
          <mxGeometry x="354" y="970" width="120" height="130" as="geometry" />
        </mxCell>
        <mxCell id="ee8PxK10upsGAS38Y1EE-45" value="" style="rounded=0;whiteSpace=wrap;html=1;fillColor=#f5f5f5;fontColor=#333333;strokeColor=#666666;" vertex="1" parent="WIyWlLk6GJQsqaUBKTNV-1">
          <mxGeometry x="220" y="970" width="120" height="130" as="geometry" />
        </mxCell>
        <mxCell id="ee8PxK10upsGAS38Y1EE-0" value="Handler A" style="rounded=1;whiteSpace=wrap;html=1;fontSize=12;glass=0;strokeWidth=1;shadow=0;fillColor=#fff2cc;strokeColor=#d6b656;" vertex="1" parent="WIyWlLk6GJQsqaUBKTNV-1">
          <mxGeometry x="240" y="442.5" width="90" height="35" as="geometry" />
        </mxCell>
        <mxCell id="ee8PxK10upsGAS38Y1EE-1" value="" style="ellipse;whiteSpace=wrap;html=1;aspect=fixed;fillColor=#f8cecc;strokeColor=#b85450;" vertex="1" parent="WIyWlLk6GJQsqaUBKTNV-1">
          <mxGeometry x="130" y="430" width="60" height="60" as="geometry" />
        </mxCell>
        <mxCell id="ee8PxK10upsGAS38Y1EE-3" value="Handler A" style="rounded=1;whiteSpace=wrap;html=1;fontSize=12;glass=0;strokeWidth=1;shadow=0;fillColor=#fff2cc;strokeColor=#d6b656;" vertex="1" parent="WIyWlLk6GJQsqaUBKTNV-1">
          <mxGeometry x="369" y="442.5" width="90" height="35" as="geometry" />
        </mxCell>
        <mxCell id="ee8PxK10upsGAS38Y1EE-4" value="" style="endArrow=classic;html=1;rounded=0;exitX=1;exitY=0.5;exitDx=0;exitDy=0;" edge="1" parent="WIyWlLk6GJQsqaUBKTNV-1" source="ee8PxK10upsGAS38Y1EE-1" target="ee8PxK10upsGAS38Y1EE-0">
          <mxGeometry width="50" height="50" relative="1" as="geometry">
            <mxPoint x="390" y="617.5" as="sourcePoint" />
            <mxPoint x="440" y="567.5" as="targetPoint" />
          </mxGeometry>
        </mxCell>
        <mxCell id="ee8PxK10upsGAS38Y1EE-5" value="" style="endArrow=classic;html=1;rounded=0;exitX=1;exitY=0.5;exitDx=0;exitDy=0;entryX=-0.03;entryY=0.506;entryDx=0;entryDy=0;entryPerimeter=0;" edge="1" parent="WIyWlLk6GJQsqaUBKTNV-1" source="ee8PxK10upsGAS38Y1EE-0" target="ee8PxK10upsGAS38Y1EE-3">
          <mxGeometry width="50" height="50" relative="1" as="geometry">
            <mxPoint x="200" y="470" as="sourcePoint" />
            <mxPoint x="250" y="470" as="targetPoint" />
          </mxGeometry>
        </mxCell>
        <mxCell id="ee8PxK10upsGAS38Y1EE-6" value="Handler A" style="rounded=1;whiteSpace=wrap;html=1;fontSize=12;glass=0;strokeWidth=1;shadow=0;fillColor=#fff2cc;strokeColor=#d6b656;" vertex="1" parent="WIyWlLk6GJQsqaUBKTNV-1">
          <mxGeometry x="240" y="682.5" width="90" height="35" as="geometry" />
        </mxCell>
        <mxCell id="ee8PxK10upsGAS38Y1EE-7" value="" style="ellipse;whiteSpace=wrap;html=1;aspect=fixed;fillColor=#f8cecc;strokeColor=#b85450;" vertex="1" parent="WIyWlLk6GJQsqaUBKTNV-1">
          <mxGeometry x="130" y="700" width="60" height="60" as="geometry" />
        </mxCell>
        <mxCell id="ee8PxK10upsGAS38Y1EE-8" value="Handler C" style="rounded=1;whiteSpace=wrap;html=1;fontSize=12;glass=0;strokeWidth=1;shadow=0;fillColor=#fff2cc;strokeColor=#d6b656;" vertex="1" parent="WIyWlLk6GJQsqaUBKTNV-1">
          <mxGeometry x="369" y="682.5" width="90" height="35" as="geometry" />
        </mxCell>
        <mxCell id="ee8PxK10upsGAS38Y1EE-9" value="" style="endArrow=classic;html=1;rounded=0;exitX=1;exitY=0.5;exitDx=0;exitDy=0;entryX=0;entryY=0.5;entryDx=0;entryDy=0;" edge="1" parent="WIyWlLk6GJQsqaUBKTNV-1" source="ee8PxK10upsGAS38Y1EE-7" target="ee8PxK10upsGAS38Y1EE-6">
          <mxGeometry width="50" height="50" relative="1" as="geometry">
            <mxPoint x="390" y="857.5" as="sourcePoint" />
            <mxPoint x="440" y="807.5" as="targetPoint" />
          </mxGeometry>
        </mxCell>
        <mxCell id="ee8PxK10upsGAS38Y1EE-10" value="" style="endArrow=classic;html=1;rounded=0;exitX=1;exitY=0.5;exitDx=0;exitDy=0;entryX=-0.03;entryY=0.506;entryDx=0;entryDy=0;entryPerimeter=0;" edge="1" parent="WIyWlLk6GJQsqaUBKTNV-1" source="ee8PxK10upsGAS38Y1EE-6" target="ee8PxK10upsGAS38Y1EE-8">
          <mxGeometry width="50" height="50" relative="1" as="geometry">
            <mxPoint x="200" y="710" as="sourcePoint" />
            <mxPoint x="250" y="710" as="targetPoint" />
          </mxGeometry>
        </mxCell>
        <mxCell id="ee8PxK10upsGAS38Y1EE-11" value="Handler B" style="rounded=1;whiteSpace=wrap;html=1;fontSize=12;glass=0;strokeWidth=1;shadow=0;fillColor=#fff2cc;strokeColor=#d6b656;" vertex="1" parent="WIyWlLk6GJQsqaUBKTNV-1">
          <mxGeometry x="240" y="740" width="90" height="35" as="geometry" />
        </mxCell>
        <mxCell id="ee8PxK10upsGAS38Y1EE-12" value="Handler D" style="rounded=1;whiteSpace=wrap;html=1;fontSize=12;glass=0;strokeWidth=1;shadow=0;fillColor=#fff2cc;strokeColor=#d6b656;" vertex="1" parent="WIyWlLk6GJQsqaUBKTNV-1">
          <mxGeometry x="369" y="740" width="90" height="35" as="geometry" />
        </mxCell>
        <mxCell id="ee8PxK10upsGAS38Y1EE-13" value="" style="endArrow=classic;html=1;rounded=0;exitX=1;exitY=0.5;exitDx=0;exitDy=0;entryX=-0.03;entryY=0.506;entryDx=0;entryDy=0;entryPerimeter=0;" edge="1" parent="WIyWlLk6GJQsqaUBKTNV-1" source="ee8PxK10upsGAS38Y1EE-11" target="ee8PxK10upsGAS38Y1EE-12">
          <mxGeometry width="50" height="50" relative="1" as="geometry">
            <mxPoint x="200" y="767.5" as="sourcePoint" />
            <mxPoint x="250" y="767.5" as="targetPoint" />
          </mxGeometry>
        </mxCell>
        <mxCell id="ee8PxK10upsGAS38Y1EE-14" value="" style="endArrow=classic;html=1;rounded=0;exitX=1;exitY=0.5;exitDx=0;exitDy=0;entryX=0;entryY=0.5;entryDx=0;entryDy=0;" edge="1" parent="WIyWlLk6GJQsqaUBKTNV-1" source="ee8PxK10upsGAS38Y1EE-7" target="ee8PxK10upsGAS38Y1EE-11">
          <mxGeometry width="50" height="50" relative="1" as="geometry">
            <mxPoint x="200" y="740" as="sourcePoint" />
            <mxPoint x="250" y="724.2105263157896" as="targetPoint" />
          </mxGeometry>
        </mxCell>
        <mxCell id="ee8PxK10upsGAS38Y1EE-15" value="Handler A" style="rounded=1;whiteSpace=wrap;html=1;fontSize=12;glass=0;strokeWidth=1;shadow=0;fillColor=#fff2cc;strokeColor=#d6b656;" vertex="1" parent="WIyWlLk6GJQsqaUBKTNV-1">
          <mxGeometry x="240" y="840" width="90" height="35" as="geometry" />
        </mxCell>
        <mxCell id="ee8PxK10upsGAS38Y1EE-16" value="" style="ellipse;whiteSpace=wrap;html=1;aspect=fixed;fillColor=#f8cecc;strokeColor=#b85450;" vertex="1" parent="WIyWlLk6GJQsqaUBKTNV-1">
          <mxGeometry x="130" y="857.5" width="60" height="60" as="geometry" />
        </mxCell>
        <mxCell id="ee8PxK10upsGAS38Y1EE-17" value="Handler C" style="rounded=1;whiteSpace=wrap;html=1;fontSize=12;glass=0;strokeWidth=1;shadow=0;fillColor=#fff2cc;strokeColor=#d6b656;" vertex="1" parent="WIyWlLk6GJQsqaUBKTNV-1">
          <mxGeometry x="369" y="840" width="90" height="35" as="geometry" />
        </mxCell>
        <mxCell id="ee8PxK10upsGAS38Y1EE-18" value="" style="endArrow=classic;html=1;rounded=0;exitX=1;exitY=0.5;exitDx=0;exitDy=0;entryX=0;entryY=0.5;entryDx=0;entryDy=0;" edge="1" parent="WIyWlLk6GJQsqaUBKTNV-1" source="ee8PxK10upsGAS38Y1EE-16" target="ee8PxK10upsGAS38Y1EE-15">
          <mxGeometry width="50" height="50" relative="1" as="geometry">
            <mxPoint x="390" y="1015" as="sourcePoint" />
            <mxPoint x="440" y="965" as="targetPoint" />
          </mxGeometry>
        </mxCell>
        <mxCell id="ee8PxK10upsGAS38Y1EE-19" value="" style="endArrow=classic;html=1;rounded=0;exitX=1;exitY=0.5;exitDx=0;exitDy=0;entryX=-0.03;entryY=0.506;entryDx=0;entryDy=0;entryPerimeter=0;" edge="1" parent="WIyWlLk6GJQsqaUBKTNV-1" source="ee8PxK10upsGAS38Y1EE-15" target="ee8PxK10upsGAS38Y1EE-17">
          <mxGeometry width="50" height="50" relative="1" as="geometry">
            <mxPoint x="200" y="867.5" as="sourcePoint" />
            <mxPoint x="250" y="867.5" as="targetPoint" />
          </mxGeometry>
        </mxCell>
        <mxCell id="ee8PxK10upsGAS38Y1EE-20" value="Handler B" style="rounded=1;whiteSpace=wrap;html=1;fontSize=12;glass=0;strokeWidth=1;shadow=0;fillColor=#fff2cc;strokeColor=#d6b656;" vertex="1" parent="WIyWlLk6GJQsqaUBKTNV-1">
          <mxGeometry x="240" y="897.5" width="90" height="35" as="geometry" />
        </mxCell>
        <mxCell id="ee8PxK10upsGAS38Y1EE-21" value="Handler D" style="rounded=1;whiteSpace=wrap;html=1;fontSize=12;glass=0;strokeWidth=1;shadow=0;fillColor=#fff2cc;strokeColor=#d6b656;" vertex="1" parent="WIyWlLk6GJQsqaUBKTNV-1">
          <mxGeometry x="369" y="897.5" width="90" height="35" as="geometry" />
        </mxCell>
        <mxCell id="ee8PxK10upsGAS38Y1EE-22" value="" style="endArrow=classic;html=1;rounded=0;exitX=1;exitY=0.5;exitDx=0;exitDy=0;entryX=-0.03;entryY=0.506;entryDx=0;entryDy=0;entryPerimeter=0;" edge="1" parent="WIyWlLk6GJQsqaUBKTNV-1" source="ee8PxK10upsGAS38Y1EE-20" target="ee8PxK10upsGAS38Y1EE-21">
          <mxGeometry width="50" height="50" relative="1" as="geometry">
            <mxPoint x="200" y="925" as="sourcePoint" />
            <mxPoint x="250" y="925" as="targetPoint" />
          </mxGeometry>
        </mxCell>
        <mxCell id="ee8PxK10upsGAS38Y1EE-23" value="" style="endArrow=classic;html=1;rounded=0;exitX=1;exitY=0.5;exitDx=0;exitDy=0;entryX=0;entryY=0.5;entryDx=0;entryDy=0;" edge="1" parent="WIyWlLk6GJQsqaUBKTNV-1" source="ee8PxK10upsGAS38Y1EE-16" target="ee8PxK10upsGAS38Y1EE-20">
          <mxGeometry width="50" height="50" relative="1" as="geometry">
            <mxPoint x="200" y="897.5" as="sourcePoint" />
            <mxPoint x="250" y="881.7105263157896" as="targetPoint" />
          </mxGeometry>
        </mxCell>
        <mxCell id="ee8PxK10upsGAS38Y1EE-24" value="Handler E" style="rounded=1;whiteSpace=wrap;html=1;fontSize=12;glass=0;strokeWidth=1;shadow=0;fillColor=#fff2cc;strokeColor=#d6b656;" vertex="1" parent="WIyWlLk6GJQsqaUBKTNV-1">
          <mxGeometry x="500" y="870" width="90" height="35" as="geometry" />
        </mxCell>
        <mxCell id="ee8PxK10upsGAS38Y1EE-25" value="" style="endArrow=classic;html=1;rounded=0;entryX=0;entryY=0.5;entryDx=0;entryDy=0;" edge="1" parent="WIyWlLk6GJQsqaUBKTNV-1" target="ee8PxK10upsGAS38Y1EE-24">
          <mxGeometry width="50" height="50" relative="1" as="geometry">
            <mxPoint x="460" y="860" as="sourcePoint" />
            <mxPoint x="376.29999999999995" y="867.71" as="targetPoint" />
          </mxGeometry>
        </mxCell>
        <mxCell id="ee8PxK10upsGAS38Y1EE-26" value="" style="endArrow=classic;html=1;rounded=0;entryX=0;entryY=0.5;entryDx=0;entryDy=0;exitX=1;exitY=0.5;exitDx=0;exitDy=0;" edge="1" parent="WIyWlLk6GJQsqaUBKTNV-1" source="ee8PxK10upsGAS38Y1EE-21" target="ee8PxK10upsGAS38Y1EE-24">
          <mxGeometry width="50" height="50" relative="1" as="geometry">
            <mxPoint x="470" y="870" as="sourcePoint" />
            <mxPoint x="510" y="897.5" as="targetPoint" />
          </mxGeometry>
        </mxCell>
        <mxCell id="ee8PxK10upsGAS38Y1EE-27" value="Handler A" style="rounded=1;whiteSpace=wrap;html=1;fontSize=12;glass=0;strokeWidth=1;shadow=0;fillColor=#fff2cc;strokeColor=#d6b656;" vertex="1" parent="WIyWlLk6GJQsqaUBKTNV-1">
          <mxGeometry x="240" y="538" width="90" height="35" as="geometry" />
        </mxCell>
        <mxCell id="ee8PxK10upsGAS38Y1EE-28" value="" style="ellipse;whiteSpace=wrap;html=1;aspect=fixed;fillColor=#f8cecc;strokeColor=#b85450;" vertex="1" parent="WIyWlLk6GJQsqaUBKTNV-1">
          <mxGeometry x="130" y="555.5" width="60" height="60" as="geometry" />
        </mxCell>
        <mxCell id="ee8PxK10upsGAS38Y1EE-29" value="" style="endArrow=classic;html=1;rounded=0;exitX=1;exitY=0.5;exitDx=0;exitDy=0;entryX=0;entryY=0.5;entryDx=0;entryDy=0;" edge="1" parent="WIyWlLk6GJQsqaUBKTNV-1" source="ee8PxK10upsGAS38Y1EE-28" target="ee8PxK10upsGAS38Y1EE-27">
          <mxGeometry width="50" height="50" relative="1" as="geometry">
            <mxPoint x="390" y="713" as="sourcePoint" />
            <mxPoint x="440" y="663" as="targetPoint" />
          </mxGeometry>
        </mxCell>
        <mxCell id="ee8PxK10upsGAS38Y1EE-30" value="Handler B" style="rounded=1;whiteSpace=wrap;html=1;fontSize=12;glass=0;strokeWidth=1;shadow=0;fillColor=#fff2cc;strokeColor=#d6b656;" vertex="1" parent="WIyWlLk6GJQsqaUBKTNV-1">
          <mxGeometry x="240" y="595.5" width="90" height="35" as="geometry" />
        </mxCell>
        <mxCell id="ee8PxK10upsGAS38Y1EE-31" value="" style="endArrow=classic;html=1;rounded=0;exitX=1;exitY=0.5;exitDx=0;exitDy=0;entryX=0;entryY=0.5;entryDx=0;entryDy=0;" edge="1" parent="WIyWlLk6GJQsqaUBKTNV-1" source="ee8PxK10upsGAS38Y1EE-28" target="ee8PxK10upsGAS38Y1EE-30">
          <mxGeometry width="50" height="50" relative="1" as="geometry">
            <mxPoint x="200" y="595.5" as="sourcePoint" />
            <mxPoint x="250" y="579.7105263157896" as="targetPoint" />
          </mxGeometry>
        </mxCell>
        <mxCell id="ee8PxK10upsGAS38Y1EE-32" value="Handler A" style="rounded=1;whiteSpace=wrap;html=1;fontSize=12;glass=0;strokeWidth=1;shadow=0;fillColor=#fff2cc;strokeColor=#d6b656;" vertex="1" parent="WIyWlLk6GJQsqaUBKTNV-1">
          <mxGeometry x="240" y="987.5" width="90" height="35" as="geometry" />
        </mxCell>
        <mxCell id="ee8PxK10upsGAS38Y1EE-33" value="" style="ellipse;whiteSpace=wrap;html=1;aspect=fixed;fillColor=#f8cecc;strokeColor=#b85450;" vertex="1" parent="WIyWlLk6GJQsqaUBKTNV-1">
          <mxGeometry x="130" y="1005" width="60" height="60" as="geometry" />
        </mxCell>
        <mxCell id="ee8PxK10upsGAS38Y1EE-34" value="Handler C" style="rounded=1;whiteSpace=wrap;html=1;fontSize=12;glass=0;strokeWidth=1;shadow=0;fillColor=#fff2cc;strokeColor=#d6b656;" vertex="1" parent="WIyWlLk6GJQsqaUBKTNV-1">
          <mxGeometry x="369" y="987.5" width="90" height="35" as="geometry" />
        </mxCell>
        <mxCell id="ee8PxK10upsGAS38Y1EE-35" value="" style="endArrow=classic;html=1;rounded=0;exitX=1;exitY=0.5;exitDx=0;exitDy=0;entryX=0;entryY=0.5;entryDx=0;entryDy=0;" edge="1" parent="WIyWlLk6GJQsqaUBKTNV-1" source="ee8PxK10upsGAS38Y1EE-33" target="ee8PxK10upsGAS38Y1EE-32">
          <mxGeometry width="50" height="50" relative="1" as="geometry">
            <mxPoint x="390" y="1162.5" as="sourcePoint" />
            <mxPoint x="440" y="1112.5" as="targetPoint" />
          </mxGeometry>
        </mxCell>
        <mxCell id="ee8PxK10upsGAS38Y1EE-36" value="" style="endArrow=classic;html=1;rounded=0;exitX=1;exitY=0.5;exitDx=0;exitDy=0;entryX=-0.03;entryY=0.506;entryDx=0;entryDy=0;entryPerimeter=0;" edge="1" parent="WIyWlLk6GJQsqaUBKTNV-1" source="ee8PxK10upsGAS38Y1EE-32" target="ee8PxK10upsGAS38Y1EE-34">
          <mxGeometry width="50" height="50" relative="1" as="geometry">
            <mxPoint x="200" y="1015" as="sourcePoint" />
            <mxPoint x="250" y="1015" as="targetPoint" />
          </mxGeometry>
        </mxCell>
        <mxCell id="ee8PxK10upsGAS38Y1EE-37" value="Handler B" style="rounded=1;whiteSpace=wrap;html=1;fontSize=12;glass=0;strokeWidth=1;shadow=0;fillColor=#fff2cc;strokeColor=#d6b656;" vertex="1" parent="WIyWlLk6GJQsqaUBKTNV-1">
          <mxGeometry x="240" y="1045" width="90" height="35" as="geometry" />
        </mxCell>
        <mxCell id="ee8PxK10upsGAS38Y1EE-38" value="Handler D" style="rounded=1;whiteSpace=wrap;html=1;fontSize=12;glass=0;strokeWidth=1;shadow=0;fillColor=#fff2cc;strokeColor=#d6b656;" vertex="1" parent="WIyWlLk6GJQsqaUBKTNV-1">
          <mxGeometry x="369" y="1045" width="90" height="35" as="geometry" />
        </mxCell>
        <mxCell id="ee8PxK10upsGAS38Y1EE-39" value="" style="endArrow=classic;html=1;rounded=0;exitX=1;exitY=0.5;exitDx=0;exitDy=0;entryX=-0.03;entryY=0.506;entryDx=0;entryDy=0;entryPerimeter=0;" edge="1" parent="WIyWlLk6GJQsqaUBKTNV-1" source="ee8PxK10upsGAS38Y1EE-37" target="ee8PxK10upsGAS38Y1EE-38">
          <mxGeometry width="50" height="50" relative="1" as="geometry">
            <mxPoint x="200" y="1072.5" as="sourcePoint" />
            <mxPoint x="250" y="1072.5" as="targetPoint" />
          </mxGeometry>
        </mxCell>
        <mxCell id="ee8PxK10upsGAS38Y1EE-40" value="" style="endArrow=classic;html=1;rounded=0;exitX=1;exitY=0.5;exitDx=0;exitDy=0;entryX=0;entryY=0.5;entryDx=0;entryDy=0;" edge="1" parent="WIyWlLk6GJQsqaUBKTNV-1" source="ee8PxK10upsGAS38Y1EE-33" target="ee8PxK10upsGAS38Y1EE-37">
          <mxGeometry width="50" height="50" relative="1" as="geometry">
            <mxPoint x="200" y="1045" as="sourcePoint" />
            <mxPoint x="250" y="1029.2105263157896" as="targetPoint" />
          </mxGeometry>
        </mxCell>
        <mxCell id="ee8PxK10upsGAS38Y1EE-47" value="" style="rounded=0;whiteSpace=wrap;html=1;fillColor=#f5f5f5;fontColor=#333333;strokeColor=#666666;" vertex="1" parent="WIyWlLk6GJQsqaUBKTNV-1">
          <mxGeometry x="354" y="1150" width="120" height="180" as="geometry" />
        </mxCell>
        <mxCell id="ee8PxK10upsGAS38Y1EE-48" value="" style="rounded=0;whiteSpace=wrap;html=1;fillColor=#f5f5f5;fontColor=#333333;strokeColor=#666666;" vertex="1" parent="WIyWlLk6GJQsqaUBKTNV-1">
          <mxGeometry x="220" y="1150" width="120" height="180" as="geometry" />
        </mxCell>
        <mxCell id="ee8PxK10upsGAS38Y1EE-49" value="Handler A1" style="rounded=1;whiteSpace=wrap;html=1;fontSize=12;glass=0;strokeWidth=1;shadow=0;fillColor=#fff2cc;strokeColor=#d6b656;" vertex="1" parent="WIyWlLk6GJQsqaUBKTNV-1">
          <mxGeometry x="240" y="1167.5" width="90" height="35" as="geometry" />
        </mxCell>
        <mxCell id="ee8PxK10upsGAS38Y1EE-50" value="" style="ellipse;whiteSpace=wrap;html=1;aspect=fixed;fillColor=#f8cecc;strokeColor=#b85450;" vertex="1" parent="WIyWlLk6GJQsqaUBKTNV-1">
          <mxGeometry x="130" y="1212.5" width="60" height="60" as="geometry" />
        </mxCell>
        <mxCell id="ee8PxK10upsGAS38Y1EE-51" value="Handler B1" style="rounded=1;whiteSpace=wrap;html=1;fontSize=12;glass=0;strokeWidth=1;shadow=0;fillColor=#d5e8d4;strokeColor=#82b366;" vertex="1" parent="WIyWlLk6GJQsqaUBKTNV-1">
          <mxGeometry x="369" y="1167.5" width="90" height="35" as="geometry" />
        </mxCell>
        <mxCell id="ee8PxK10upsGAS38Y1EE-52" value="" style="endArrow=classic;html=1;rounded=0;exitX=1;exitY=0.5;exitDx=0;exitDy=0;entryX=0;entryY=0.5;entryDx=0;entryDy=0;" edge="1" parent="WIyWlLk6GJQsqaUBKTNV-1" source="ee8PxK10upsGAS38Y1EE-50" target="ee8PxK10upsGAS38Y1EE-49">
          <mxGeometry width="50" height="50" relative="1" as="geometry">
            <mxPoint x="390" y="1342.5" as="sourcePoint" />
            <mxPoint x="440" y="1292.5" as="targetPoint" />
          </mxGeometry>
        </mxCell>
        <mxCell id="ee8PxK10upsGAS38Y1EE-53" value="" style="endArrow=classic;html=1;rounded=0;exitX=1;exitY=0.5;exitDx=0;exitDy=0;entryX=-0.03;entryY=0.506;entryDx=0;entryDy=0;entryPerimeter=0;" edge="1" parent="WIyWlLk6GJQsqaUBKTNV-1" source="ee8PxK10upsGAS38Y1EE-49" target="ee8PxK10upsGAS38Y1EE-51">
          <mxGeometry width="50" height="50" relative="1" as="geometry">
            <mxPoint x="200" y="1195" as="sourcePoint" />
            <mxPoint x="250" y="1195" as="targetPoint" />
          </mxGeometry>
        </mxCell>
        <mxCell id="ee8PxK10upsGAS38Y1EE-54" value="Handler A2" style="rounded=1;whiteSpace=wrap;html=1;fontSize=12;glass=0;strokeWidth=1;shadow=0;fillColor=#d5e8d4;strokeColor=#82b366;" vertex="1" parent="WIyWlLk6GJQsqaUBKTNV-1">
          <mxGeometry x="240" y="1225" width="90" height="35" as="geometry" />
        </mxCell>
        <mxCell id="ee8PxK10upsGAS38Y1EE-55" value="Handler B2" style="rounded=1;whiteSpace=wrap;html=1;fontSize=12;glass=0;strokeWidth=1;shadow=0;fillColor=#fff2cc;strokeColor=#d6b656;" vertex="1" parent="WIyWlLk6GJQsqaUBKTNV-1">
          <mxGeometry x="369" y="1225" width="90" height="35" as="geometry" />
        </mxCell>
        <mxCell id="ee8PxK10upsGAS38Y1EE-56" value="" style="endArrow=classic;html=1;rounded=0;exitX=1;exitY=0.5;exitDx=0;exitDy=0;entryX=-0.03;entryY=0.506;entryDx=0;entryDy=0;entryPerimeter=0;" edge="1" parent="WIyWlLk6GJQsqaUBKTNV-1" source="ee8PxK10upsGAS38Y1EE-54" target="ee8PxK10upsGAS38Y1EE-55">
          <mxGeometry width="50" height="50" relative="1" as="geometry">
            <mxPoint x="200" y="1252.5" as="sourcePoint" />
            <mxPoint x="250" y="1252.5" as="targetPoint" />
          </mxGeometry>
        </mxCell>
        <mxCell id="ee8PxK10upsGAS38Y1EE-57" value="" style="endArrow=classic;html=1;rounded=0;exitX=1;exitY=0.5;exitDx=0;exitDy=0;entryX=0;entryY=0.5;entryDx=0;entryDy=0;" edge="1" parent="WIyWlLk6GJQsqaUBKTNV-1" source="ee8PxK10upsGAS38Y1EE-50" target="ee8PxK10upsGAS38Y1EE-54">
          <mxGeometry width="50" height="50" relative="1" as="geometry">
            <mxPoint x="200" y="1225" as="sourcePoint" />
            <mxPoint x="250" y="1209.2105263157896" as="targetPoint" />
          </mxGeometry>
        </mxCell>
        <mxCell id="ee8PxK10upsGAS38Y1EE-58" value="Handler A2" style="rounded=1;whiteSpace=wrap;html=1;fontSize=12;glass=0;strokeWidth=1;shadow=0;fillColor=#fff2cc;strokeColor=#d6b656;" vertex="1" parent="WIyWlLk6GJQsqaUBKTNV-1">
          <mxGeometry x="240" y="1280" width="90" height="35" as="geometry" />
        </mxCell>
        <mxCell id="ee8PxK10upsGAS38Y1EE-59" value="Handler B3" style="rounded=1;whiteSpace=wrap;html=1;fontSize=12;glass=0;strokeWidth=1;shadow=0;fillColor=#fff2cc;strokeColor=#d6b656;" vertex="1" parent="WIyWlLk6GJQsqaUBKTNV-1">
          <mxGeometry x="369" y="1280" width="90" height="35" as="geometry" />
        </mxCell>
        <mxCell id="ee8PxK10upsGAS38Y1EE-60" value="" style="rounded=0;whiteSpace=wrap;html=1;fillColor=#f5f5f5;fontColor=#333333;strokeColor=#666666;" vertex="1" parent="WIyWlLk6GJQsqaUBKTNV-1">
          <mxGeometry x="354" y="1400" width="120" height="180" as="geometry" />
        </mxCell>
        <mxCell id="ee8PxK10upsGAS38Y1EE-61" value="" style="rounded=0;whiteSpace=wrap;html=1;fillColor=#f5f5f5;fontColor=#333333;strokeColor=#666666;" vertex="1" parent="WIyWlLk6GJQsqaUBKTNV-1">
          <mxGeometry x="220" y="1400" width="120" height="180" as="geometry" />
        </mxCell>
        <mxCell id="ee8PxK10upsGAS38Y1EE-62" value="Handler A1" style="rounded=1;whiteSpace=wrap;html=1;fontSize=12;glass=0;strokeWidth=1;shadow=0;fillColor=#fff2cc;strokeColor=#d6b656;" vertex="1" parent="WIyWlLk6GJQsqaUBKTNV-1">
          <mxGeometry x="240" y="1417.5" width="90" height="35" as="geometry" />
        </mxCell>
        <mxCell id="ee8PxK10upsGAS38Y1EE-63" value="" style="ellipse;whiteSpace=wrap;html=1;aspect=fixed;fillColor=#f8cecc;strokeColor=#b85450;" vertex="1" parent="WIyWlLk6GJQsqaUBKTNV-1">
          <mxGeometry x="130" y="1462.5" width="60" height="60" as="geometry" />
        </mxCell>
        <mxCell id="ee8PxK10upsGAS38Y1EE-64" value="Handler B1" style="rounded=1;whiteSpace=wrap;html=1;fontSize=12;glass=0;strokeWidth=1;shadow=0;fillColor=#d5e8d4;strokeColor=#82b366;" vertex="1" parent="WIyWlLk6GJQsqaUBKTNV-1">
          <mxGeometry x="369" y="1417.5" width="90" height="35" as="geometry" />
        </mxCell>
        <mxCell id="ee8PxK10upsGAS38Y1EE-65" value="" style="endArrow=classic;html=1;rounded=0;exitX=1;exitY=0.5;exitDx=0;exitDy=0;entryX=0;entryY=0.5;entryDx=0;entryDy=0;" edge="1" parent="WIyWlLk6GJQsqaUBKTNV-1" source="ee8PxK10upsGAS38Y1EE-63" target="ee8PxK10upsGAS38Y1EE-62">
          <mxGeometry width="50" height="50" relative="1" as="geometry">
            <mxPoint x="390" y="1592.5" as="sourcePoint" />
            <mxPoint x="440" y="1542.5" as="targetPoint" />
          </mxGeometry>
        </mxCell>
        <mxCell id="ee8PxK10upsGAS38Y1EE-66" value="" style="endArrow=classic;html=1;rounded=0;exitX=1;exitY=0.5;exitDx=0;exitDy=0;entryX=-0.03;entryY=0.506;entryDx=0;entryDy=0;entryPerimeter=0;" edge="1" parent="WIyWlLk6GJQsqaUBKTNV-1" source="ee8PxK10upsGAS38Y1EE-62" target="ee8PxK10upsGAS38Y1EE-64">
          <mxGeometry width="50" height="50" relative="1" as="geometry">
            <mxPoint x="200" y="1445" as="sourcePoint" />
            <mxPoint x="250" y="1445" as="targetPoint" />
          </mxGeometry>
        </mxCell>
        <mxCell id="ee8PxK10upsGAS38Y1EE-67" value="Handler A2" style="rounded=1;whiteSpace=wrap;html=1;fontSize=12;glass=0;strokeWidth=1;shadow=0;fillColor=#d5e8d4;strokeColor=#82b366;" vertex="1" parent="WIyWlLk6GJQsqaUBKTNV-1">
          <mxGeometry x="240" y="1475" width="90" height="35" as="geometry" />
        </mxCell>
        <mxCell id="ee8PxK10upsGAS38Y1EE-68" value="Handler B2" style="rounded=1;whiteSpace=wrap;html=1;fontSize=12;glass=0;strokeWidth=1;shadow=0;fillColor=#fff2cc;strokeColor=#d6b656;" vertex="1" parent="WIyWlLk6GJQsqaUBKTNV-1">
          <mxGeometry x="369" y="1475" width="90" height="35" as="geometry" />
        </mxCell>
        <mxCell id="ee8PxK10upsGAS38Y1EE-69" value="" style="endArrow=classic;html=1;rounded=0;exitX=1;exitY=0.5;exitDx=0;exitDy=0;entryX=-0.03;entryY=0.506;entryDx=0;entryDy=0;entryPerimeter=0;" edge="1" parent="WIyWlLk6GJQsqaUBKTNV-1" source="ee8PxK10upsGAS38Y1EE-67" target="ee8PxK10upsGAS38Y1EE-68">
          <mxGeometry width="50" height="50" relative="1" as="geometry">
            <mxPoint x="200" y="1502.5" as="sourcePoint" />
            <mxPoint x="250" y="1502.5" as="targetPoint" />
          </mxGeometry>
        </mxCell>
        <mxCell id="ee8PxK10upsGAS38Y1EE-70" value="" style="endArrow=classic;html=1;rounded=0;exitX=1;exitY=0.5;exitDx=0;exitDy=0;entryX=0;entryY=0.5;entryDx=0;entryDy=0;" edge="1" parent="WIyWlLk6GJQsqaUBKTNV-1" source="ee8PxK10upsGAS38Y1EE-63" target="ee8PxK10upsGAS38Y1EE-67">
          <mxGeometry width="50" height="50" relative="1" as="geometry">
            <mxPoint x="200" y="1475" as="sourcePoint" />
            <mxPoint x="250" y="1459.2105263157896" as="targetPoint" />
          </mxGeometry>
        </mxCell>
        <mxCell id="ee8PxK10upsGAS38Y1EE-71" value="Handler A2" style="rounded=1;whiteSpace=wrap;html=1;fontSize=12;glass=0;strokeWidth=1;shadow=0;fillColor=#fff2cc;strokeColor=#d6b656;" vertex="1" parent="WIyWlLk6GJQsqaUBKTNV-1">
          <mxGeometry x="240" y="1530" width="90" height="35" as="geometry" />
        </mxCell>
        <mxCell id="ee8PxK10upsGAS38Y1EE-72" value="Handler B3" style="rounded=1;whiteSpace=wrap;html=1;fontSize=12;glass=0;strokeWidth=1;shadow=0;fillColor=#fff2cc;strokeColor=#d6b656;" vertex="1" parent="WIyWlLk6GJQsqaUBKTNV-1">
          <mxGeometry x="369" y="1530" width="90" height="35" as="geometry" />
        </mxCell>
        <mxCell id="ee8PxK10upsGAS38Y1EE-73" value="Handler C" style="rounded=1;whiteSpace=wrap;html=1;fontSize=12;glass=0;strokeWidth=1;shadow=0;fillColor=#fff2cc;strokeColor=#d6b656;" vertex="1" parent="WIyWlLk6GJQsqaUBKTNV-1">
          <mxGeometry x="520" y="1475" width="90" height="35" as="geometry" />
        </mxCell>
        <mxCell id="ee8PxK10upsGAS38Y1EE-74" value="" style="endArrow=classic;html=1;rounded=0;exitX=1;exitY=0.5;exitDx=0;exitDy=0;entryX=0;entryY=0.5;entryDx=0;entryDy=0;" edge="1" parent="WIyWlLk6GJQsqaUBKTNV-1" source="ee8PxK10upsGAS38Y1EE-63" target="ee8PxK10upsGAS38Y1EE-71">
          <mxGeometry width="50" height="50" relative="1" as="geometry">
            <mxPoint x="200" y="1502.5" as="sourcePoint" />
            <mxPoint x="250" y="1445" as="targetPoint" />
          </mxGeometry>
        </mxCell>
        <mxCell id="ee8PxK10upsGAS38Y1EE-75" value="" style="endArrow=classic;html=1;rounded=0;exitX=1;exitY=0.5;exitDx=0;exitDy=0;entryX=0;entryY=0.5;entryDx=0;entryDy=0;" edge="1" parent="WIyWlLk6GJQsqaUBKTNV-1" source="ee8PxK10upsGAS38Y1EE-50" target="ee8PxK10upsGAS38Y1EE-58">
          <mxGeometry width="50" height="50" relative="1" as="geometry">
            <mxPoint x="200" y="1252.5" as="sourcePoint" />
            <mxPoint x="250" y="1195" as="targetPoint" />
          </mxGeometry>
        </mxCell>
        <mxCell id="ee8PxK10upsGAS38Y1EE-76" value="" style="endArrow=classic;html=1;rounded=0;entryX=0;entryY=0.5;entryDx=0;entryDy=0;" edge="1" parent="WIyWlLk6GJQsqaUBKTNV-1" target="ee8PxK10upsGAS38Y1EE-73">
          <mxGeometry width="50" height="50" relative="1" as="geometry">
            <mxPoint x="460" y="1493" as="sourcePoint" />
            <mxPoint x="250" y="1445" as="targetPoint" />
          </mxGeometry>
        </mxCell>
      </root>
    </mxGraphModel>
  </diagram>
</mxfile>
